<svg width="12" height="12" viewBox="0 0 12 12" fill="none" xmlns="http://www.w3.org/2000/svg">
<g clip-path="url(#clip0_9_53)">
<path d="M6 11.5C9.03757 11.5 11.5 9.03757 11.5 6C11.5 2.96243 9.03757 0.5 6 0.5C2.96243 0.5 0.5 2.96243 0.5 6C0.5 9.03757 2.96243 11.5 6 11.5Z" fill="black"/>
<path d="M5.99995 2.5174C4.0771 2.5174 2.51733 4.07716 2.51733 6.00001C2.51733 7.51466 3.48413 8.80157 4.83335 9.28282C4.83979 9.28497 4.86343 9.29357 4.86987 9.29571C4.88921 9.30216 4.91069 9.30646 4.93218 9.30646C5.04604 9.30646 5.13628 9.21407 5.13628 9.10236C5.13628 9.09591 5.13628 9.09161 5.13628 9.08517C5.13628 8.9004 5.13628 8.66622 5.13628 8.47931C4.91499 8.52443 4.57983 8.56739 4.39722 8.47931C4.16089 8.36544 4.04058 8.21935 3.92671 7.93146C3.78491 7.58126 3.45835 7.48458 3.44546 7.42443C3.43257 7.36212 3.79136 7.26974 3.97612 7.48243C4.16089 7.69513 4.3478 8.12052 4.74526 8.0797C4.94077 8.06036 5.06753 8.02814 5.14702 8.0045C5.16206 7.867 5.20718 7.69728 5.32104 7.57696C4.38647 7.42228 3.76343 6.91954 3.76343 5.93341C3.76343 5.48439 3.89233 5.13634 4.12007 4.87638C4.0814 4.66154 4.01694 4.1631 4.18882 3.98907C4.18882 3.98907 4.43159 3.83868 5.12769 4.32853C5.38765 4.26837 5.67554 4.23829 5.98276 4.23829C5.98921 4.23829 5.99351 4.23829 5.99995 4.23829C6.0064 4.23829 6.01069 4.23829 6.01714 4.23829C6.32651 4.24044 6.6144 4.27052 6.87222 4.32853C7.56831 3.83868 7.81108 3.98907 7.81108 3.98907C7.98296 4.16525 7.91851 4.66368 7.87983 4.87638C8.10757 5.13849 8.23647 5.48654 8.23647 5.93341C8.23647 6.91954 7.61558 7.42228 6.67886 7.57696C6.85718 7.76388 6.86362 8.06681 6.86362 8.19142C6.86362 8.30958 6.86362 9.10021 6.86362 9.1045C6.86362 9.21837 6.95601 9.30861 7.06773 9.30861C7.08491 9.30861 7.09995 9.30646 7.11714 9.30216C7.12144 9.30216 7.13433 9.29786 7.13862 9.29571C8.50288 8.82306 9.48257 7.52755 9.48257 6.00216C9.48257 4.07501 7.9228 2.5174 5.99995 2.5174Z" fill="white"/>
</g>
<defs>
<clipPath id="clip0_9_53">
<rect width="11" height="11" fill="white" transform="translate(0.5 0.5)"/>
</clipPath>
</defs>
</svg>
