<svg width="12" height="12" viewBox="0 0 12 12" fill="none" xmlns="http://www.w3.org/2000/svg">
<g clip-path="url(#clip0_9_13)">
<path d="M5.71992 4.85977V3.55547L3.52617 5.01562L4.50586 5.66953L5.71992 4.85977ZM8.69766 6.47344V5.53828L7.99688 6.00586L8.69766 6.47344ZM6 0.75C3.10078 0.75 0.75 3.10078 0.75 6C0.75 8.89922 3.10078 11.25 6 11.25C8.89922 11.25 11.25 8.89922 11.25 6C11.25 3.10078 8.89922 0.75 6 0.75ZM9.25781 6.99609C9.25781 7.00898 9.25664 7.0207 9.25547 7.03242C9.25547 7.03711 9.2543 7.04062 9.25312 7.04414C9.25147 7.05696 9.24832 7.06955 9.24375 7.08164C9.24141 7.08867 9.23906 7.0957 9.23672 7.10156C9.23438 7.10625 9.23203 7.11094 9.23086 7.11563C9.22734 7.12148 9.225 7.12852 9.22149 7.13437C9.21914 7.13906 9.2168 7.14258 9.21328 7.14727C9.20977 7.15313 9.20508 7.15898 9.20156 7.16484C9.19805 7.16953 9.1957 7.17305 9.19219 7.17656C9.1875 7.18125 9.18281 7.18711 9.17813 7.1918C9.17461 7.19531 9.17109 7.19883 9.16641 7.20234C9.16172 7.20703 9.15586 7.21172 9.15 7.21523C9.14531 7.21875 9.1418 7.22227 9.13711 7.22461L9.13242 7.22812L6.15469 9.21094C6.10781 9.24258 6.05391 9.25781 6 9.25781C5.94492 9.25781 5.89102 9.24141 5.84414 9.21094L2.86641 7.2293L2.86172 7.22578L2.84883 7.21641C2.84297 7.21172 2.83828 7.2082 2.83359 7.20352C2.83008 7.2 2.82656 7.19648 2.82188 7.19297C2.81719 7.18828 2.8125 7.18359 2.80781 7.17773C2.80434 7.17412 2.8012 7.1702 2.79844 7.16602C2.79375 7.16016 2.79023 7.1543 2.78672 7.14844C2.78438 7.14375 2.78086 7.14023 2.77852 7.13555C2.775 7.12969 2.77148 7.12266 2.76914 7.1168C2.7668 7.11211 2.76445 7.10742 2.76328 7.10273C2.76094 7.0957 2.75859 7.08867 2.75625 7.08281C2.75508 7.07813 2.75273 7.07344 2.75156 7.06875C2.74922 7.06055 2.74805 7.05352 2.74687 7.04531C2.7457 7.0418 2.7457 7.03711 2.74453 7.03359C2.74336 7.02188 2.74219 7.00898 2.74219 6.99727V5.01445C2.74219 5.00273 2.74336 4.98984 2.74453 4.97812C2.7457 4.97461 2.7457 4.96992 2.74687 4.96641C2.74853 4.95358 2.75167 4.941 2.75625 4.92891C2.75859 4.92188 2.76094 4.91484 2.76328 4.90898C2.76563 4.9043 2.76797 4.89961 2.76914 4.89492C2.77148 4.88906 2.775 4.88203 2.77852 4.87617C2.78086 4.87148 2.7832 4.86797 2.78672 4.86328C2.79375 4.85273 2.80078 4.84336 2.80781 4.83398C2.8125 4.8293 2.81719 4.82344 2.82188 4.81875C2.82539 4.81523 2.82891 4.81172 2.83359 4.8082C2.83828 4.80352 2.84414 4.79883 2.84883 4.79531C2.85352 4.7918 2.85703 4.78828 2.86172 4.78594L2.86641 4.78242L5.84414 2.80078C5.93789 2.73867 6.06094 2.73867 6.15469 2.80078L9.13242 4.78242L9.13711 4.78594L9.15 4.79531L9.16641 4.8082C9.16992 4.81172 9.17344 4.81523 9.17813 4.81875C9.18281 4.82344 9.1875 4.82812 9.19219 4.83398C9.20039 4.84336 9.20742 4.85273 9.21328 4.86328C9.21563 4.86797 9.21914 4.87148 9.22149 4.87617C9.225 4.88203 9.22852 4.88789 9.23086 4.89492C9.2332 4.89961 9.23555 4.9043 9.23672 4.90898C9.23906 4.91602 9.24141 4.92305 9.24375 4.92891C9.24492 4.93359 9.24727 4.93828 9.24844 4.94297C9.25078 4.95117 9.25195 4.9582 9.25312 4.96641C9.2543 4.96992 9.2543 4.97461 9.25547 4.97812C9.25664 4.98984 9.25781 5.00273 9.25781 5.01445V6.99609ZM6.28008 7.15195V8.45625L8.47383 6.99609L7.49414 6.34219L6.28008 7.15195ZM3.30234 5.53828V6.47344L4.00313 6.00586L3.30234 5.53828ZM6 5.34492L5.00977 6.00586L6 6.6668L6.99023 6.00586L6 5.34492ZM8.47383 5.01562L6.28008 3.55547V4.85977L7.49414 5.66953L8.47383 5.01562ZM4.50586 6.34219L3.52617 6.99609L5.71992 8.45625V7.15195L4.50586 6.34219Z" fill="black"/>
</g>
<defs>
<clipPath id="clip0_9_13">
<rect width="12" height="12" fill="white"/>
</clipPath>
</defs>
</svg>
