<svg width="11" height="11" viewBox="0 0 11 11" fill="none" xmlns="http://www.w3.org/2000/svg">
<g clip-path="url(#clip0_9_38)">
<path d="M5.5 11C8.53757 11 11 8.53757 11 5.5C11 2.46243 8.53757 0 5.5 0C2.46243 0 0 2.46243 0 5.5C0 8.53757 2.46243 11 5.5 11Z" fill="black"/>
<path d="M5.49998 6.22188L8.78279 3.41172C8.73123 3.37734 8.66248 3.35156 8.59373 3.35156H2.40623C2.33748 3.35156 2.26873 3.37734 2.21716 3.41172L5.49998 6.22188Z" fill="white"/>
<path d="M5.72344 6.47967C5.59453 6.59139 5.40547 6.59139 5.27656 6.47967L2.0625 3.73827V7.30467C2.0625 7.49374 2.21719 7.64842 2.40625 7.64842H8.59375C8.78281 7.64842 8.9375 7.49374 8.9375 7.30467V3.72968L5.72344 6.47967Z" fill="white"/>
</g>
<defs>
<clipPath id="clip0_9_38">
<rect width="11" height="11" fill="white"/>
</clipPath>
</defs>
</svg>
