<svg width="12" height="12" viewBox="0 0 12 12" fill="none" xmlns="http://www.w3.org/2000/svg">
<g clip-path="url(#clip0_9_23)">
<path d="M6 0.75C3.10078 0.75 0.75 3.10078 0.75 6C0.75 8.89922 3.10078 11.25 6 11.25C8.89922 11.25 11.25 8.89922 11.25 6C11.25 3.10078 8.89922 0.75 6 0.75ZM8.52305 4.70742C8.52656 4.7625 8.52656 4.81992 8.52656 4.87617C8.52656 6.59648 7.21641 8.57812 4.82227 8.57812C4.08398 8.57812 3.39961 8.36367 2.82305 7.99453C2.92852 8.00625 3.0293 8.01094 3.13711 8.01094C3.74648 8.01094 4.30664 7.80469 4.75313 7.45547C4.18125 7.44375 3.70078 7.06875 3.53672 6.55313C3.73711 6.58242 3.91758 6.58242 4.12383 6.52969C3.82937 6.46986 3.5647 6.30994 3.37478 6.07709C3.18487 5.84424 3.08143 5.55282 3.08203 5.25234V5.23594C3.2543 5.3332 3.45703 5.39297 3.66914 5.40117C3.49083 5.28234 3.3446 5.12134 3.24341 4.93246C3.14222 4.74357 3.08921 4.53264 3.08906 4.31836C3.08906 4.07578 3.15234 3.8543 3.26602 3.66211C3.59285 4.06446 4.0007 4.39353 4.46304 4.62793C4.92539 4.86233 5.43188 4.99682 5.94961 5.02266C5.76563 4.13789 6.42656 3.42188 7.22109 3.42188C7.59609 3.42188 7.93359 3.57891 8.17148 3.83203C8.46562 3.77695 8.74687 3.6668 8.99766 3.51914C8.90039 3.82031 8.69648 4.07461 8.42578 4.23516C8.68828 4.20703 8.94141 4.13438 9.17578 4.03242C8.99883 4.29258 8.77734 4.52344 8.52305 4.70742Z" fill="black"/>
</g>
<defs>
<clipPath id="clip0_9_23">
<rect width="12" height="12" fill="white"/>
</clipPath>
</defs>
</svg>
